<svg width="21" height="21" viewBox="0 0 21 21" fill="none" xmlns="http://www.w3.org/2000/svg">
<path d="M2.70001 12.945H4.36668" stroke="white" stroke-linecap="round" stroke-linejoin="round"/>
<path d="M2.70001 10.028L4.36653 10.0282" stroke="white" stroke-linecap="round" stroke-linejoin="round"/>
<path d="M2.7005 7.11166L4.36687 7.1117" stroke="white" stroke-linecap="round" stroke-linejoin="round"/>
<path d="M17.7002 7.1117L16.0335 7.11166" stroke="white" stroke-linecap="round" stroke-linejoin="round"/>
<path d="M17.7 10.0287L16.0335 10.0284" stroke="white" stroke-linecap="round" stroke-linejoin="round"/>
<path d="M17.6999 12.945H16.0335" stroke="white" stroke-linecap="round" stroke-linejoin="round"/>
<path d="M7.28318 2.52832L7.28314 4.19499" stroke="white" stroke-linecap="round" stroke-linejoin="round"/>
<path d="M10.2008 2.52847L10.2005 4.19499" stroke="white" stroke-linecap="round" stroke-linejoin="round"/>
<path d="M13.1167 2.52863L13.1166 4.19499" stroke="white" stroke-linecap="round" stroke-linejoin="round"/>
<path d="M13.1166 17.5283L13.1167 15.8616" stroke="white" stroke-linecap="round" stroke-linejoin="round"/>
<path d="M10.1995 17.5281L10.1998 15.8616" stroke="white" stroke-linecap="round" stroke-linejoin="round"/>
<path d="M7.28314 17.528L7.28318 15.8616" stroke="white" stroke-linecap="round" stroke-linejoin="round"/>
<path fill-rule="evenodd" clip-rule="evenodd" d="M12.6998 15.8616H7.69986C5.85891 15.8616 4.36652 14.3693 4.36652 12.5283V7.52831C4.36652 5.68736 5.85891 4.19498 7.69986 4.19498H12.6998C14.5408 4.19498 16.0332 5.68736 16.0332 7.52831V12.5283C16.0332 14.3693 14.5408 15.8616 12.6998 15.8616Z" stroke="white" stroke-linecap="round" stroke-linejoin="round"/>
<path d="M7.47638 11.1783H10.43" stroke="white" stroke-linecap="round" stroke-linejoin="round"/>
<path d="M10.6832 11.945L9.44156 8.11166H8.47489L7.23322 11.945" stroke="white" stroke-linecap="round" stroke-linejoin="round"/>
<path d="M12.7915 11.945V8.11166" stroke="white" stroke-linecap="round" stroke-linejoin="round"/>
</svg>
