<svg width="21" height="21" viewBox="0 0 21 21" fill="none" xmlns="http://www.w3.org/2000/svg">
<g clip-path="url(#clip0_1_182)">
<path fill-rule="evenodd" clip-rule="evenodd" d="M3.53436 14.2002H5.20172C6.12258 14.2002 6.86909 14.9467 6.86909 15.8675V16.7012C6.86909 17.1616 6.49583 17.5349 6.0354 17.5349H2.70068C2.24025 17.5349 1.867 17.1616 1.867 16.7012V15.8675C1.867 14.9467 2.61351 14.2002 3.53436 14.2002Z" stroke="white" stroke-linecap="round" stroke-linejoin="round"/>
<path fill-rule="evenodd" clip-rule="evenodd" d="M15.2062 14.2002H16.8736C17.7944 14.2002 18.541 14.9467 18.541 15.8675V16.7012C18.541 17.1616 18.1677 17.5349 17.7073 17.5349H14.3725C13.9121 17.5349 13.5389 17.1616 13.5389 16.7012V15.8675C13.5389 14.9467 14.2854 14.2002 15.2062 14.2002Z" stroke="white" stroke-linecap="round" stroke-linejoin="round"/>
<path fill-rule="evenodd" clip-rule="evenodd" d="M12.705 8.19362L12.7032 6.69216C12.7015 5.3131 11.5831 4.19604 10.204 4.19604C8.82507 4.19604 7.70668 5.31299 7.70489 6.69197L7.70294 8.19373C7.70186 9.03048 8.1196 9.81227 8.81582 10.2764L9.27958 10.5855C9.83938 10.9587 10.5687 10.9587 11.1285 10.5855L11.5918 10.2767C12.2882 9.81245 12.706 9.03054 12.705 8.19362Z" stroke="white" stroke-linecap="round" stroke-linejoin="round"/>
<path d="M8.53644 13.3665H11.8711" stroke="white" stroke-linecap="round" stroke-linejoin="round"/>
<path d="M19.3745 17.5349H1.03351" stroke="white" stroke-linecap="round" stroke-linejoin="round"/>
<path d="M14.3078 10.16L15.0296 8.71648C15.1454 8.48496 15.2056 8.22967 15.2056 7.97082V6.22014C15.2056 3.72097 13.1796 1.69498 10.6805 1.69498H9.72664C7.22747 1.69498 5.20148 3.72097 5.20148 6.22014V7.97082C5.20148 8.22967 5.26175 8.48496 5.37752 8.71648L6.09929 10.16" stroke="white" stroke-linecap="round" stroke-linejoin="round"/>
<path d="M12.5369 9.09735L15.2542 10.7277C16.2587 11.3304 16.8732 12.4159 16.8732 13.5872V14.2002" stroke="white" stroke-linecap="round" stroke-linejoin="round"/>
<path d="M7.87032 9.09735L5.15301 10.7277C4.14858 11.3304 3.534 12.4158 3.534 13.5872V14.2002" stroke="white" stroke-linecap="round" stroke-linejoin="round"/>
</g>
<defs>
<clipPath id="clip0_1_182">
<rect width="20" height="20" fill="white" transform="translate(0.200012 0.0283203)"/>
</clipPath>
</defs>
</svg>
