<svg width="11" height="16" viewBox="0 0 11 16" fill="none" xmlns="http://www.w3.org/2000/svg">
<g clip-path="url(#clip0_1_618)">
<g clip-path="url(#clip1_1_618)">
<path d="M6.51834 6.02891H10.0183L9.62946 7.58447H6.51834V14.5845H4.96279V7.58447H1.85168V6.02891H4.96279V4.57291C4.96279 3.18613 5.10746 2.68291 5.37812 2.1758C5.64335 1.67476 6.05308 1.26503 6.55412 0.999806C7.06123 0.72914 7.56446 0.584473 8.95123 0.584473C9.35723 0.584473 9.71346 0.623362 10.0183 0.70114V2.14002H8.95123C7.92146 2.14002 7.60801 2.20069 7.28834 2.3718C7.0519 2.4978 6.87612 2.67358 6.75012 2.91002C6.57901 3.22969 6.51834 3.54314 6.51834 4.57291V6.02891Z" fill="white" stroke="white" stroke-width="0.8"/>
</g>
</g>
<defs>
<clipPath id="clip0_1_618">
<rect width="10" height="15" fill="white" transform="translate(0.630005 0.0185547)"/>
</clipPath>
<clipPath id="clip1_1_618">
<rect width="10" height="15" fill="white" transform="translate(0.630005 0.0185547)"/>
</clipPath>
</defs>
</svg>
