<svg width="17" height="17" viewBox="0 0 17 17" fill="none" xmlns="http://www.w3.org/2000/svg">
<path d="M12.1394 4.33771C12.0813 4.37655 12.036 4.43173 12.0094 4.49615C11.9826 4.56067 11.9756 4.63171 11.9893 4.70029L12.1394 4.33771ZM12.1394 4.33771C12.1975 4.29892 12.2657 4.27821 12.3356 4.27821C12.4292 4.27821 12.5191 4.3154 12.5853 4.38165C12.6515 4.44786 12.6887 4.53766 12.6887 4.63133C12.6887 4.70114 12.668 4.76942 12.6292 4.8275C12.5903 4.88563 12.5352 4.93086 12.4708 4.95756M12.1394 4.33771L12.4708 4.95756M12.4708 4.95756C12.4065 4.98424 12.3352 4.9913 12.2667 4.97768L12.4708 4.95756ZM8.54115 5.28063C7.91898 5.28184 7.31013 5.46744 6.7934 5.81399C6.27667 6.16054 5.87425 6.65247 5.637 7.22763C5.39974 7.8028 5.33829 8.43539 5.46041 9.04546C5.58254 9.65552 5.88275 10.2157 6.32312 10.6552C6.76349 11.0947 7.32427 11.394 7.93455 11.5148C8.54481 11.6357 9.17733 11.5731 9.75207 11.3347C10.3268 11.0964 10.8179 10.693 11.1634 10.1756C11.509 9.65811 11.6934 9.04989 11.6934 8.42774C11.6942 8.01386 11.6132 7.6029 11.455 7.22043C11.2969 6.83805 11.0645 6.49056 10.7716 6.19814M8.54115 5.28063L10.7716 6.19814M8.54115 5.28063C8.95504 5.27901 9.36517 5.35924 9.74796 5.5167C10.1307 5.67415 10.4786 5.90576 10.7716 6.19814M15.106 5.51041L15.1062 5.51867L15.1067 5.52693C15.1484 6.26384 15.1486 6.49094 15.1486 8.42774C15.1486 9.3904 15.1379 9.92978 15.1274 10.3214C15.125 10.4104 15.1226 10.4926 15.1203 10.5711C15.1125 10.8346 15.106 11.0562 15.1059 11.3508C15.0928 11.8833 14.9929 12.41 14.8101 12.9104C14.6572 13.3156 14.4167 13.6822 14.1058 13.9841L14.1001 13.9896L14.0946 13.9954C13.7952 14.3053 13.4293 14.543 13.0246 14.6906L13.019 14.6927C12.5196 14.8814 11.9916 14.9836 11.4579 14.9946L11.4489 14.9948L11.44 14.9953C10.7031 15.037 10.476 15.0372 8.53919 15.0372C6.60239 15.0372 6.37529 15.037 5.63838 14.9953L5.62944 14.9948L5.62048 14.9946C5.0867 14.9836 4.55874 14.8814 4.05936 14.6926L4.05568 14.6913C3.65045 14.5417 3.28376 14.3035 2.98244 13.994L2.9771 13.9885L2.9716 13.9832C2.6617 13.6838 2.42396 13.3179 2.27635 12.9131L2.27431 12.9076C2.08554 12.4082 1.98342 11.8802 1.97236 11.3465L1.97218 11.3375L1.97167 11.3286C1.92996 10.5917 1.92981 10.3645 1.92981 8.42774C1.92981 6.49094 1.92996 6.26384 1.97167 5.52693L1.97218 5.51799L1.97236 5.50903C1.98342 4.97526 2.08554 4.4473 2.27431 3.94789L2.27635 3.9424C2.42397 3.53762 2.66171 3.1717 2.97159 2.87234L2.9771 2.86702L2.98245 2.86152C3.28376 2.55203 3.65044 2.31379 4.05567 2.16424L4.05934 2.16286C4.55875 1.97409 5.08671 1.87197 5.62048 1.86091L5.62944 1.86073L5.63838 1.86022C6.37529 1.81851 6.60239 1.81836 8.53919 1.81836C10.476 1.81836 10.7031 1.81851 11.44 1.86022L11.4489 1.86073L11.4579 1.86091C11.9916 1.87197 12.5196 1.97409 13.019 2.16286L13.0245 2.1649C13.4293 2.31251 13.7952 2.55025 14.0946 2.86015L14.1044 2.87003C14.4146 3.17367 14.6554 3.54075 14.8105 3.94612C14.9937 4.44789 15.0935 4.9763 15.106 5.51041ZM14.5539 12.7662C14.7269 12.2922 14.8191 11.7917 14.8261 11.2872C14.8619 10.57 14.8689 10.2907 14.8689 8.42774C14.8689 6.56631 14.8619 6.28603 14.8261 5.57015C14.8227 5.05548 14.7307 4.54525 14.5542 4.06177L14.5517 4.05491L14.549 4.04813C14.4059 3.68918 14.1869 3.36548 13.9069 3.09929C13.6226 2.79379 13.2707 2.55895 12.8793 2.41367L12.8768 2.41277C12.4036 2.23996 11.9048 2.14807 11.4011 2.1409C10.6839 2.09805 10.3974 2.09805 8.56123 2.09805H8.53919C7.59996 2.09805 7.06218 2.10877 6.66903 2.11957C6.57385 2.12218 6.48817 2.12476 6.4081 2.12717C6.15534 2.13478 5.95848 2.14071 5.69544 2.14069L5.69152 2.14072C5.17429 2.14478 4.66149 2.23654 4.17494 2.41211L4.15985 2.41756L4.14513 2.42396C3.78872 2.57907 3.46962 2.8084 3.20905 3.09649C2.91869 3.35758 2.68994 3.6801 2.53952 4.04073L2.53589 4.04944L2.53259 4.05827C2.35226 4.5411 2.25742 5.05161 2.25229 5.56692C2.2095 6.28333 2.2095 6.57049 2.2095 8.4057V8.42774C2.2095 9.36697 2.22022 9.90475 2.23102 10.2979C2.23363 10.3931 2.23621 10.4788 2.23862 10.5589C2.24623 10.8116 2.25216 11.0085 2.25216 11.2715V11.2794L2.2524 11.2872C2.26867 11.8062 2.37586 12.3182 2.56907 12.8C2.70429 13.1752 2.923 13.5149 3.20872 13.7932C3.47648 14.0691 3.7978 14.2875 4.15304 14.4349L4.1687 14.4414L4.18477 14.4468C4.67686 14.6129 5.19369 14.6941 5.71307 14.6866C6.4249 14.729 6.71573 14.729 8.54558 14.729H8.56763C10.4306 14.729 10.7098 14.722 11.427 14.6862C11.9315 14.6793 12.4312 14.5874 12.9052 14.4143L12.9104 14.4124C13.284 14.2713 13.6227 14.0511 13.9032 13.7667C14.1927 13.4864 14.415 13.1444 14.5539 12.7662ZM6.94613 10.812C7.41765 11.127 7.97205 11.2952 8.53919 11.2952C8.91575 11.2952 9.28861 11.221 9.63649 11.0769C9.98441 10.9328 10.3005 10.7216 10.5668 10.4553C10.833 10.1891 11.0442 9.87296 11.1883 9.52504C11.3324 9.17716 11.4066 8.8043 11.4066 8.42774C11.4066 7.8606 11.2384 7.30623 10.9234 6.83471C10.6083 6.36317 10.1605 5.99561 9.6365 5.77859C9.11255 5.56156 8.53601 5.50477 7.97978 5.61542C7.42356 5.72606 6.91263 5.99915 6.51162 6.40017C6.1106 6.80118 5.83751 7.31211 5.72687 7.86833C5.61622 8.42456 5.67301 9.0011 5.89004 9.52505C6.10706 10.049 6.47459 10.4968 6.94613 10.812Z" stroke="white"/>
</svg>
