<svg width="18" height="16" viewBox="0 0 18 16" fill="none" xmlns="http://www.w3.org/2000/svg">
<g clip-path="url(#clip0_1_670)">
<g clip-path="url(#clip1_1_670)">
<path d="M17.005 7.65142C17.005 6.63272 16.1746 5.80595 15.1514 5.80595C14.6472 5.80595 14.2024 5.99788 13.8762 6.32268C12.6157 5.42209 10.8659 4.83154 8.93822 4.75772L9.78345 0.815799L12.5267 1.39158C12.5564 2.08548 13.1347 2.6465 13.8465 2.6465C14.5731 2.6465 15.1662 2.05595 15.1662 1.33253C15.1662 0.609107 14.5731 0.0185547 13.8465 0.0185547C13.3275 0.0185547 12.8826 0.313831 12.675 0.756744L9.60551 0.107138C9.51653 0.0923745 9.42756 0.107138 9.35343 0.151429C9.27929 0.195721 9.2348 0.26954 9.20514 0.358122L8.27094 4.75772C6.29873 4.81678 4.53411 5.39256 3.25884 6.32268C2.93261 6.01264 2.47293 5.80595 1.98358 5.80595C0.960409 5.80595 0.130005 6.63272 0.130005 7.65142C0.130005 8.40438 0.574865 9.03922 1.22732 9.33449C1.19766 9.51166 1.18283 9.7036 1.18283 9.89552C1.18283 12.7302 4.48962 15.0186 8.58233 15.0186C12.675 15.0186 15.9818 12.7302 15.9818 9.89552C15.9818 9.7036 15.967 9.52643 15.9373 9.34927C16.5453 9.05398 17.005 8.40438 17.005 7.65142ZM4.32651 8.9654C4.32651 8.24198 4.91965 7.65142 5.64627 7.65142C6.37287 7.65142 6.96601 8.24198 6.96601 8.9654C6.96601 9.68883 6.37287 10.2794 5.64627 10.2794C4.91965 10.2794 4.32651 9.68883 4.32651 8.9654ZM11.6963 12.4349C10.7918 13.3355 9.07168 13.3946 8.5675 13.3946C8.06333 13.3946 6.32837 13.3208 5.43866 12.4349C5.3052 12.3021 5.3052 12.0806 5.43866 11.9477C5.57211 11.8149 5.79454 11.8149 5.928 11.9477C6.49149 12.5088 7.70744 12.7154 8.58233 12.7154C9.45722 12.7154 10.6583 12.5088 11.2367 11.9477C11.3701 11.8149 11.5925 11.8149 11.726 11.9477C11.8298 12.0954 11.8298 12.3021 11.6963 12.4349ZM11.4591 10.2794C10.7325 10.2794 10.1393 9.68883 10.1393 8.9654C10.1393 8.24198 10.7325 7.65142 11.4591 7.65142C12.1857 7.65142 12.7788 8.24198 12.7788 8.9654C12.7788 9.68883 12.1857 10.2794 11.4591 10.2794Z" fill="white"/>
</g>
</g>
<defs>
<clipPath id="clip0_1_670">
<rect width="17" height="15" fill="white" transform="translate(0.130005 0.0185547)"/>
</clipPath>
<clipPath id="clip1_1_670">
<rect width="17" height="15" fill="white" transform="translate(0.130005 0.0185547)"/>
</clipPath>
</defs>
</svg>
