<svg width="18" height="18" viewBox="0 0 18 18" fill="none" xmlns="http://www.w3.org/2000/svg">
<g clip-path="url(#clip0_1_683)">
<g clip-path="url(#clip1_1_683)">
<path d="M8.62999 12.6853C8.62999 10.1853 6.96332 8.51855 4.46332 8.51855" stroke="white" stroke-linecap="round" stroke-linejoin="round"/>
<path d="M12.797 12.6854C12.797 7.68538 9.46368 4.35205 4.46368 4.35205" stroke="white" stroke-linecap="round" stroke-linejoin="round"/>
<path d="M4.46301 12.6945L4.47238 12.6841" stroke="white" stroke-linecap="round" stroke-linejoin="round"/>
<path d="M16.13 6.01855V11.0186C16.13 13.78 13.8914 16.0186 11.13 16.0186H6.13C3.36858 16.0186 1.13 13.78 1.13 11.0186V6.01855C1.13 3.25713 3.36858 1.01855 6.13 1.01855H11.13C13.8914 1.01855 16.13 3.25713 16.13 6.01855Z" stroke="white" stroke-linecap="round" stroke-linejoin="round"/>
</g>
</g>
<defs>
<clipPath id="clip0_1_683">
<rect width="17" height="17" fill="white" transform="translate(0.130005 0.0185547)"/>
</clipPath>
<clipPath id="clip1_1_683">
<rect width="17" height="17" fill="white" transform="translate(0.130005 0.0185547)"/>
</clipPath>
</defs>
</svg>
