<svg width="21" height="21" viewBox="0 0 21 21" fill="none" xmlns="http://www.w3.org/2000/svg">
<path fill-rule="evenodd" clip-rule="evenodd" d="M3.40802 3.77835C3.40802 4.60835 3.50968 5.43585 3.71135 6.24085L3.97302 7.28835C4.14385 7.97168 4.01885 8.69501 3.62802 9.28168L2.84635 10.4541C1.65302 12.2441 1.54135 14.5458 2.55718 16.4425L2.91468 17.1108C3.32718 17.8808 4.12968 18.3616 5.00302 18.3616H6.23968C7.16135 18.3616 7.99885 17.8275 8.38718 16.9916L8.69385 16.3316C9.55135 14.4875 9.38552 12.3291 8.25802 10.6375L7.35468 9.28168C6.96385 8.69585 6.83885 7.97168 7.00968 7.28835L7.32635 6.02335C7.49135 5.36251 7.57552 4.68335 7.57552 4.00251V3.77835C7.57552 2.62751 6.64302 1.69501 5.49218 1.69501C4.34052 1.69501 3.40802 2.62751 3.40802 3.77835Z" stroke="white" stroke-linecap="round" stroke-linejoin="round"/>
<path d="M4.00519 8.36163H6.98852" stroke="white" stroke-linecap="round" stroke-linejoin="round"/>
<path d="M15.3289 10.6047C15.4464 10.7222 15.4464 10.9127 15.3289 11.0301C15.2114 11.1476 15.0209 11.1476 14.9035 11.0301C14.786 10.9127 14.786 10.7222 14.9035 10.6047C15.0209 10.4872 15.2114 10.4872 15.3289 10.6047Z" stroke="white" stroke-linecap="round" stroke-linejoin="round"/>
<path d="M12.3509 11.0297C12.4684 11.1472 12.4684 11.3377 12.3509 11.4552C12.2334 11.5726 12.0429 11.5726 11.9254 11.4552C11.8079 11.3377 11.8079 11.1472 11.9254 11.0297C12.0429 10.9122 12.2334 10.9122 12.3509 11.0297Z" stroke="white" stroke-linecap="round" stroke-linejoin="round"/>
<path d="M14.9041 13.583C15.0216 13.7005 15.0216 13.891 14.9041 14.0085C14.7866 14.126 14.5961 14.126 14.4787 14.0085C14.3612 13.891 14.3612 13.7005 14.4787 13.583C14.5961 13.4656 14.7866 13.4656 14.9041 13.583Z" stroke="white" stroke-linecap="round" stroke-linejoin="round"/>
<path d="M8.16241 10.4933C9.05825 8.73499 10.8799 7.52832 12.9882 7.52832C15.9799 7.52832 18.4049 9.95332 18.4049 12.945C18.4049 15.9366 15.9799 18.3616 12.9882 18.3616C11.2516 18.3616 9.70991 17.5408 8.71825 16.27" stroke="white" stroke-linecap="round" stroke-linejoin="round"/>
</svg>
