<svg width="21" height="21" viewBox="0 0 21 21" fill="none" xmlns="http://www.w3.org/2000/svg">
<path d="M3.53351 14.1508V15.8616C3.53351 16.7824 4.27934 17.5283 5.20017 17.5283H15.2002C16.121 17.5283 16.8668 16.7824 16.8668 15.8616V8.98163" stroke="white" stroke-linecap="round" stroke-linejoin="round"/>
<path d="M3.53351 11.2341V4.19499C3.53351 3.27415 4.27934 2.52832 5.20017 2.52832H15.2002C16.121 2.52832 16.8668 3.27415 16.8668 4.19499V6.06499" stroke="white" stroke-linecap="round" stroke-linejoin="round"/>
<path d="M4.55966 11.6613C5.12917 12.2308 5.12917 13.1542 4.55966 13.7237C3.99014 14.2932 3.06677 14.2932 2.49726 13.7237C1.92775 13.1542 1.92775 12.2308 2.49726 11.6613C3.06678 11.0918 3.99015 11.0918 4.55966 11.6613Z" stroke="white" stroke-linecap="round" stroke-linejoin="round"/>
<path fill-rule="evenodd" clip-rule="evenodd" d="M10.991 12.5258C10.991 11.7208 11.6435 11.0675 12.4493 11.0675C13.2552 11.0675 13.9077 11.72 13.9077 12.5258C13.9077 13.3317 13.2552 13.9842 12.4493 13.9842C11.6468 13.9875 10.9943 13.34 10.991 12.5375C10.991 12.5333 10.991 12.53 10.991 12.5258Z" stroke="white" stroke-linecap="round" stroke-linejoin="round"/>
<path d="M9.05477 6.49211C9.62429 7.06162 9.62429 7.98499 9.05477 8.5545C8.48526 9.12401 7.56189 9.12401 6.99238 8.5545C6.42287 7.98498 6.42287 7.06162 6.99238 6.49211C7.5619 5.92259 8.48526 5.92259 9.05477 6.49211Z" stroke="white" stroke-linecap="round" stroke-linejoin="round"/>
<path d="M17.9029 6.49211C18.4724 7.06162 18.4724 7.98499 17.9029 8.5545C17.3334 9.12401 16.41 9.12401 15.8405 8.5545C15.271 7.98498 15.271 7.06162 15.8405 6.49211C16.41 5.92259 17.3334 5.92259 17.9029 6.49211Z" stroke="white" stroke-linecap="round" stroke-linejoin="round"/>
<path d="M15.8584 8.56998L13.4417 11.4616" stroke="white" stroke-linecap="round" stroke-linejoin="round"/>
<path d="M4.51691 11.62L7.03358 8.58664" stroke="white" stroke-linecap="round" stroke-linejoin="round"/>
<path d="M11.4586 11.4616L9.01691 8.58664" stroke="white" stroke-linecap="round" stroke-linejoin="round"/>
</svg>
