<svg width="17" height="15" viewBox="0 0 17 15" fill="none" xmlns="http://www.w3.org/2000/svg">
<g clip-path="url(#clip0_1_657)">
<g clip-path="url(#clip1_1_657)">
<path d="M7.30851 8.98622L3.34399 13.441H2.40015L6.98958 8.28265L7.26614 7.9718L7.01072 7.64335L2.01453 1.21875H5.45275L8.55234 5.2486L8.92068 5.72749L9.32224 5.27609L12.9317 1.21875H13.8741L9.63146 5.9872L9.35638 6.29637L9.60869 6.6244L14.8519 13.441H11.5217L8.0767 9.01164L7.70789 8.53746L7.30851 8.98622ZM11.512 12.9054L11.6622 13.0985H11.9067H13.1706H14.1859L13.5669 12.2936L5.40854 1.68598L5.25843 1.4908H5.0122H3.65592H2.63357L3.26125 2.29778L11.512 12.9054Z" fill="white" stroke="white"/>
</g>
</g>
<defs>
<clipPath id="clip0_1_657">
<rect width="16" height="14" fill="white" transform="translate(0.630005 0.518555)"/>
</clipPath>
<clipPath id="clip1_1_657">
<rect width="16" height="14" fill="white" transform="translate(0.630005 0.518555)"/>
</clipPath>
</defs>
</svg>
