<svg width="15" height="11" viewBox="0 0 15 11" fill="none" xmlns="http://www.w3.org/2000/svg">
<g clip-path="url(#clip0_1_631)">
<g clip-path="url(#clip1_1_631)">
<path d="M13.0318 2.16068L13.0385 2.16761C13.1443 2.27447 13.2483 2.49913 13.3267 2.76587C13.3625 2.88764 13.3878 2.99953 13.404 3.08092C13.412 3.12134 13.4177 3.15353 13.4212 3.1748L13.425 3.19799L13.4251 3.19906L13.4257 3.2037L13.4296 3.23762C13.4331 3.26771 13.438 3.31239 13.444 3.36956C13.4561 3.48396 13.4721 3.64807 13.4882 3.84518C13.5205 4.24072 13.5524 4.76321 13.5524 5.2812V6.28684C13.5524 6.80614 13.5205 7.32864 13.4882 7.7238C13.4721 7.92073 13.4561 8.08457 13.4441 8.19875C13.4381 8.25582 13.4331 8.3004 13.4296 8.33041L13.4257 8.36424L13.4251 8.3689L13.425 8.37004L13.4212 8.39324C13.4177 8.41451 13.412 8.4467 13.404 8.48711C13.3878 8.5685 13.3625 8.68039 13.3267 8.80215C13.2483 9.06889 13.1443 9.29354 13.0385 9.40038L13.0318 9.40734C12.7106 9.74467 12.3818 9.7789 12.1055 9.80768C12.0771 9.81065 12.0492 9.81355 12.0219 9.81672C11.1128 9.8813 9.97219 9.91525 9.0522 9.93295C8.59139 9.94182 8.18805 9.94658 7.89998 9.94912C7.75597 9.95039 7.64083 9.95111 7.56181 9.95151L7.47128 9.9519L7.44804 9.95197L7.44345 9.95198H7.44222L7.43616 9.95191L7.40742 9.95163L7.29701 9.95048C7.2013 9.94943 7.06329 9.94783 6.89434 9.94559C6.55636 9.9411 6.09489 9.93408 5.60063 9.92389C4.61714 9.90366 3.53114 9.87136 3.01488 9.82409C2.93027 9.80861 2.84644 9.79748 2.76361 9.78649C2.43874 9.74341 2.12918 9.70235 1.84824 9.40733L1.84262 9.40154C1.73751 9.29467 1.6339 9.06972 1.55571 8.80268C1.52003 8.68081 1.49486 8.56882 1.47868 8.48735C1.47065 8.44689 1.46497 8.41467 1.46142 8.39337L1.45768 8.37012L1.45751 8.369L1.45695 8.36433L1.45301 8.33041C1.44957 8.30032 1.4446 8.25564 1.43859 8.19847C1.42658 8.08407 1.4105 7.91996 1.39439 7.72285C1.36208 7.32731 1.3302 6.80482 1.3302 6.28684V5.2812C1.3302 4.76358 1.36268 4.24138 1.39562 3.84598C1.41203 3.64896 1.42843 3.48493 1.44067 3.37059C1.44678 3.31344 1.45185 3.26879 1.45536 3.23873L1.45937 3.20485L1.4601 3.19888L1.46043 3.19662L1.4641 3.17345C1.46758 3.1522 1.47317 3.12004 1.4811 3.07965C1.49708 2.99831 1.522 2.8865 1.55748 2.76483C1.63524 2.49818 1.73869 2.27407 1.84407 2.16762L1.8508 2.1607C2.17207 1.82337 2.50086 1.78913 2.77717 1.76036C2.80571 1.75739 2.83369 1.75447 2.86104 1.75129C3.76965 1.68547 4.90926 1.65215 5.82863 1.63541C6.28901 1.62703 6.69195 1.62284 6.97971 1.62074C7.12356 1.61969 7.23857 1.61917 7.31749 1.61891L7.4079 1.61868L7.4311 1.61865H7.43691H7.43832H7.4439H7.44573H7.45153L7.47474 1.61868L7.56514 1.61891C7.64407 1.61917 7.75907 1.61969 7.90293 1.62074C8.19069 1.62284 8.59363 1.62703 9.05401 1.63541C9.97338 1.65215 11.113 1.68547 12.0216 1.75129C12.0489 1.75447 12.0769 1.75739 12.1055 1.76036C12.3818 1.78914 12.7106 1.82338 13.0318 2.16068ZM5.5752 7.50761V8.33141L6.30599 7.95116L9.87749 6.09279L10.727 5.65078L9.87875 5.20635L6.30725 3.33502L5.5752 2.95145V3.77791V7.50761Z" fill="white"/>
<path d="M7.43832 1.61865H7.43691H7.4311L7.4079 1.61868L7.31749 1.61891C7.23857 1.61917 7.12356 1.61969 6.97971 1.62074C6.69195 1.62284 6.28901 1.62703 5.82863 1.63541C4.90926 1.65215 3.76965 1.68547 2.86104 1.75129C2.83369 1.75447 2.80571 1.75739 2.77717 1.76036C2.50086 1.78913 2.17207 1.82337 1.8508 2.1607L1.84407 2.16762C1.73869 2.27407 1.63524 2.49818 1.55748 2.76483C1.522 2.8865 1.49708 2.99831 1.4811 3.07965C1.47317 3.12004 1.46758 3.1522 1.4641 3.17345L1.46043 3.19662L1.4601 3.19888L1.45937 3.20485L1.45536 3.23873C1.45185 3.26879 1.44678 3.31344 1.44067 3.37059C1.42843 3.48493 1.41203 3.64896 1.39562 3.84598C1.36268 4.24138 1.3302 4.76358 1.3302 5.2812V6.28684C1.3302 6.80482 1.36208 7.32731 1.39439 7.72285C1.4105 7.91996 1.42658 8.08407 1.43859 8.19847C1.4446 8.25564 1.44957 8.30032 1.45301 8.33041L1.45695 8.36433L1.45751 8.369L1.45768 8.37012L1.46142 8.39337C1.46497 8.41467 1.47065 8.44689 1.47868 8.48735C1.49486 8.56882 1.52003 8.68081 1.55571 8.80268C1.6339 9.06972 1.73751 9.29467 1.84262 9.40154L1.84824 9.40733C2.12918 9.70235 2.43874 9.74341 2.76361 9.78649C2.84644 9.79748 2.93027 9.8086 3.01488 9.82409C3.53114 9.87136 4.61714 9.90365 5.60063 9.92389C6.09489 9.93407 6.55636 9.9411 6.89434 9.94559C7.06329 9.94783 7.2013 9.94943 7.29701 9.95048L7.40742 9.95163L7.43616 9.95191L7.44222 9.95198H7.44345L7.44804 9.95197L7.47128 9.9519L7.56181 9.95151C7.64083 9.95111 7.75597 9.95039 7.89998 9.94912C8.18805 9.94658 8.5914 9.94182 9.0522 9.93295C9.9722 9.91524 11.1128 9.8813 12.0219 9.81672C12.0492 9.81355 12.0771 9.81065 12.1055 9.80768C12.3818 9.7789 12.7106 9.74466 13.0318 9.40734L13.0385 9.40038C13.1443 9.29353 13.2483 9.06889 13.3267 8.80215C13.3625 8.68039 13.3878 8.5685 13.404 8.48711C13.412 8.4467 13.4177 8.41451 13.4212 8.39324L13.425 8.37004L13.4251 8.3689L13.4257 8.36424L13.4296 8.33041C13.4331 8.3004 13.4381 8.25582 13.4441 8.19875C13.4561 8.08457 13.4721 7.92073 13.4882 7.7238C13.5205 7.32864 13.5524 6.80614 13.5524 6.28684V5.2812C13.5524 4.76321 13.5205 4.24072 13.4882 3.84518C13.4721 3.64807 13.4561 3.48396 13.444 3.36956C13.438 3.31239 13.4331 3.26771 13.4296 3.23762L13.4257 3.2037L13.4251 3.19906L13.425 3.19799L13.4212 3.1748C13.4177 3.15353 13.412 3.12134 13.404 3.08092C13.3878 2.99953 13.3625 2.88764 13.3267 2.76587C13.2483 2.49913 13.1443 2.27447 13.0385 2.16761L13.0318 2.16068C12.7106 1.82338 12.3818 1.78914 12.1055 1.76036C12.0769 1.75739 12.0489 1.75447 12.0216 1.75129C11.113 1.68547 9.97338 1.65215 9.05401 1.63541C8.59363 1.62703 8.19069 1.62284 7.90293 1.62074C7.75907 1.61969 7.64407 1.61917 7.56514 1.61891L7.47474 1.61868L7.45153 1.61865H7.44573H7.4439M7.43832 1.61865L7.43873 1.11865M7.43832 1.61865H7.4439M7.4439 1.61865V1.11865M5.5752 7.50761V8.33141L6.30599 7.95116L9.87749 6.09279L10.727 5.65078L9.87875 5.20635L6.30725 3.33502L5.5752 2.95145V3.77791V7.50761Z" stroke="white"/>
</g>
</g>
<defs>
<clipPath id="clip0_1_631">
<rect width="14" height="10" fill="white" transform="translate(0.630005 0.518555)"/>
</clipPath>
<clipPath id="clip1_1_631">
<rect width="14" height="10" fill="white" transform="translate(0.630005 0.518555)"/>
</clipPath>
</defs>
</svg>
